<svg width="22" height="23" viewBox="0 0 22 23" fill="none" xmlns="http://www.w3.org/2000/svg">
<path d="M20.6807 0.236174H1.36413C1.04754 0.236174 0.74391 0.365752 0.520043 0.596402C0.296177 0.827052 0.17041 1.13988 0.17041 1.46607V21.368C0.17041 21.6942 0.296177 22.007 0.520043 22.2377C0.74391 22.4683 1.04754 22.5979 1.36413 22.5979H11.7604V13.9327H8.93884V10.5785H11.7604V8.06278C11.7019 7.47216 11.7696 6.87551 11.9586 6.31469C12.1477 5.75387 12.4536 5.24246 12.8548 4.81632C13.256 4.39018 13.7428 4.05963 14.2811 3.84786C14.8194 3.63609 15.3962 3.54823 15.9709 3.59043C16.8156 3.58508 17.6598 3.62988 18.4995 3.7246V6.74344H16.774C15.4066 6.74344 15.1462 7.41429 15.1462 8.38703V10.5449H18.4018L17.9786 13.8992H15.1462V22.5979H20.6807C20.8375 22.5979 20.9927 22.5661 21.1375 22.5043C21.2824 22.4425 21.414 22.3519 21.5248 22.2377C21.6357 22.1235 21.7236 21.9879 21.7836 21.8387C21.8436 21.6895 21.8744 21.5295 21.8744 21.368V1.46607C21.8744 1.30456 21.8436 1.14463 21.7836 0.995408C21.7236 0.846191 21.6357 0.710608 21.5248 0.596402C21.414 0.482195 21.2824 0.391602 21.1375 0.329794C20.9927 0.267986 20.8375 0.236174 20.6807 0.236174Z" fill="#F8F8F8"/>
</svg>
