<svg width="23" height="23" viewBox="0 0 23 23" fill="none" xmlns="http://www.w3.org/2000/svg">
<path d="M6.72105 0.236174H16.113C19.6909 0.236174 22.5979 3.1432 22.5979 6.72108V16.113C22.5979 17.8329 21.9147 19.4824 20.6985 20.6985C19.4823 21.9147 17.8329 22.5979 16.113 22.5979H6.72105C3.14317 22.5979 0.236145 19.6909 0.236145 16.113V6.72108C0.236145 5.00117 0.919374 3.35171 2.13553 2.13556C3.35168 0.919403 5.00114 0.236174 6.72105 0.236174ZM6.49743 2.47235C5.4299 2.47235 4.4061 2.89642 3.65125 3.65128C2.89639 4.40613 2.47232 5.42993 2.47232 6.49746V16.3366C2.47232 18.5616 4.27244 20.3617 6.49743 20.3617H16.3366C17.4041 20.3617 18.4279 19.9377 19.1828 19.1828C19.9376 18.428 20.3617 17.4041 20.3617 16.3366V6.49746C20.3617 4.27247 18.5616 2.47235 16.3366 2.47235H6.49743ZM17.287 4.14948C17.6576 4.14948 18.0131 4.29672 18.2752 4.55883C18.5373 4.82093 18.6846 5.17642 18.6846 5.54709C18.6846 5.91775 18.5373 6.27324 18.2752 6.53534C18.0131 6.79745 17.6576 6.94469 17.287 6.94469C16.9163 6.94469 16.5608 6.79745 16.2987 6.53534C16.0366 6.27324 15.8894 5.91775 15.8894 5.54709C15.8894 5.17642 16.0366 4.82093 16.2987 4.55883C16.5608 4.29672 16.9163 4.14948 17.287 4.14948ZM11.417 5.82661C12.8997 5.82661 14.3216 6.4156 15.37 7.46401C16.4185 8.51242 17.0074 9.93437 17.0074 11.417C17.0074 12.8997 16.4185 14.3217 15.37 15.3701C14.3216 16.4185 12.8997 17.0075 11.417 17.0075C9.93434 17.0075 8.51239 16.4185 7.46398 15.3701C6.41557 14.3217 5.82658 12.8997 5.82658 11.417C5.82658 9.93437 6.41557 8.51242 7.46398 7.46401C8.51239 6.4156 9.93434 5.82661 11.417 5.82661ZM11.417 8.06278C10.5274 8.06278 9.67424 8.41617 9.04519 9.04522C8.41615 9.67427 8.06275 10.5274 8.06275 11.417C8.06275 12.3066 8.41615 13.1598 9.04519 13.7889C9.67424 14.4179 10.5274 14.7713 11.417 14.7713C12.3066 14.7713 13.1598 14.4179 13.7888 13.7889C14.4179 13.1598 14.7713 12.3066 14.7713 11.417C14.7713 10.5274 14.4179 9.67427 13.7888 9.04522C13.1598 8.41617 12.3066 8.06278 11.417 8.06278Z" fill="#F8F8F8"/>
</svg>
